<svg width="24" height="24" viewBox="0 0 24 24" fill="none" xmlns="http://www.w3.org/2000/svg">
<g id="vuesax/bold/edit-2">
<g id="Group">
<path id="Vector"
      d="M21 22H3C2.59 22 2.25 21.66 2.25 21.25C2.25 20.84 2.59 20.5 3 20.5H21C21.41 20.5 21.75 20.84 21.75 21.25C21.75 21.66 21.41 22 21 22Z" fill="#fff"/>
<path id="Vector_2"
      d="M19.0225 3.48162C17.0825 1.54162 15.1825 1.49162 13.1925 3.48162L11.9825 4.69162C11.8825 4.79162 11.8425 4.95162 11.8825 5.09162C12.6425 7.74162 14.7625 9.86162 17.4125 10.6216C17.4525 10.6316 17.4925 10.6416 17.5325 10.6416C17.6425 10.6416 17.7425 10.6016 17.8225 10.5216L19.0225 9.31162C20.0125 8.33162 20.4925 7.38162 20.4925 6.42162C20.5025 5.43162 20.0225 4.47162 19.0225 3.48162Z" fill="#fff"/>
<path id="Vector_3"
      d="M15.6084 11.5269C15.3184 11.3869 15.0384 11.2469 14.7684 11.0869C14.5484 10.9569 14.3384 10.8169 14.1284 10.6669C13.9584 10.5569 13.7584 10.3969 13.5684 10.2369C13.5484 10.2269 13.4784 10.1669 13.3984 10.0869C13.0684 9.80687 12.6984 9.44688 12.3684 9.04688C12.3384 9.02688 12.2884 8.95687 12.2184 8.86687C12.1184 8.74687 11.9484 8.54687 11.7984 8.31687C11.6784 8.16687 11.5384 7.94687 11.4084 7.72687C11.2484 7.45687 11.1084 7.18687 10.9684 6.90687C10.9472 6.86148 10.9267 6.81631 10.9068 6.77141C10.7592 6.43809 10.3246 6.34065 10.0668 6.5984L4.33837 12.3269C4.20837 12.4569 4.08837 12.7069 4.05837 12.8769L3.51837 16.7069C3.41837 17.3869 3.60837 18.0269 4.02837 18.4569C4.38837 18.8069 4.88837 18.9969 5.42837 18.9969C5.54837 18.9969 5.66837 18.9869 5.78837 18.9669L9.62837 18.4269C9.80837 18.3969 10.0584 18.2769 10.1784 18.1469L15.8997 12.4256C16.1592 12.166 16.0613 11.7205 15.7237 11.5765C15.6857 11.5603 15.6473 11.5437 15.6084 11.5269Z" fill="#fff"/>
</g>
</g>
</svg>
