<svg width="24" height="24" viewBox="0 0 24 24" fill="none" xmlns="http://www.w3.org/2000/svg">
<g id="vuesax/linear/trash">
<g id="trash">
<path id="Vector"
      d="M21 5.97656C17.67 5.64656 14.32 5.47656 10.98 5.47656C9 5.47656 7.02 5.57656 5.04 5.77656L3 5.97656"
      stroke="#fff" stroke-width="1.5" stroke-linecap="round" stroke-linejoin="round"/>
<path id="Vector_2" d="M8.5 4.97L8.72 3.66C8.88 2.71 9 2 10.69 2H13.31C15 2 15.13 2.75 15.28 3.67L15.5 4.97"
      stroke="#fff" stroke-width="1.5" stroke-linecap="round" stroke-linejoin="round"/>
<path id="Vector_3"
      d="M18.8484 9.14062L18.1984 19.2106C18.0884 20.7806 17.9984 22.0006 15.2084 22.0006H8.78844C5.99844 22.0006 5.90844 20.7806 5.79844 19.2106L5.14844 9.14062" stroke="#fff" stroke-width="1.5" stroke-linecap="round" stroke-linejoin="round"/>
<path id="Line" d="M10.3281 16.5H13.6581" stroke="#fff" stroke-width="1.5" stroke-linecap="round"
      stroke-linejoin="round"/>
<path id="Line_2" d="M9.5 12.5H14.5" stroke="#fff" stroke-width="1.5" stroke-linecap="round" stroke-linejoin="round"/>
</g>
</g>
</svg>
